<?xml version="1.0" encoding="iso-8859-1"?>
<!-- Generator: Adobe Illustrator 16.0.0, SVG Export Plug-In . SVG Version: 6.00 Build 0)  -->
<!DOCTYPE svg PUBLIC "-//W3C//DTD SVG 1.1//EN" "http://www.w3.org/Graphics/SVG/1.1/DTD/svg11.dtd">
<svg version="1.1" id="Capa_1" xmlns="http://www.w3.org/2000/svg" xmlns:xlink="http://www.w3.org/1999/xlink" x="0px" y="0px"
	 fill="#232323" viewBox="0 0 266.388 266.388" 
	 xml:space="preserve">
<g>
	<g>
		<path d="M0.745,99.564v158.923c0,4.361,3.539,7.9,7.901,7.9h61.888c4.362,0,7.901-3.539,7.901-7.9V99.564
			c0-16.331-13.297-29.625-29.625-29.625H30.37C14.034,69.939,0.745,83.233,0.745,99.564z M66.583,246.64
			c0,4.357-3.54,7.896-7.899,7.896H20.496c-4.362,0-7.899-3.539-7.899-7.896V99.564c0-9.798,7.978-17.775,17.773-17.775h18.441
			c9.795,0,17.773,7.978,17.773,17.775V246.64z"/>
		<path d="M94.345,67.148v191.339c0,4.361,3.539,7.9,7.901,7.9h61.888c4.362,0,7.901-3.539,7.901-7.9V67.148
			c0-16.328-13.299-29.625-29.625-29.625h-18.44C107.642,37.524,94.345,50.82,94.345,67.148z M160.183,246.64
			c0,4.357-3.539,7.896-7.9,7.896h-38.187c-4.362,0-7.901-3.539-7.901-7.896V67.148c0-9.795,7.98-17.772,17.775-17.772h18.44
			c9.796,0,17.772,7.978,17.772,17.772V246.64z"/>
		<path d="M187.954,258.487c0,4.361,3.54,7.9,7.896,7.9h61.891c4.362,0,7.901-3.539,7.901-7.9V29.625
			C265.643,13.294,252.344,0,236.018,0h-18.438c-16.33,0-29.625,13.294-29.625,29.625V258.487z M253.79,246.64
			c0,4.357-3.539,7.896-7.9,7.896h-38.187c-4.362,0-7.901-3.539-7.901-7.896V29.625c0-9.795,7.978-17.775,17.777-17.775h18.438
			c9.796,0,17.772,7.98,17.772,17.775V246.64z"/>
	</g>
</g>
<g>
</g>
<g>
</g>
<g>
</g>
<g>
</g>
<g>
</g>
<g>
</g>
<g>
</g>
<g>
</g>
<g>
</g>
<g>
</g>
<g>
</g>
<g>
</g>
<g>
</g>
<g>
</g>
<g>
</g>
</svg>
